<svg width="67" height="66" viewBox="0 0 67 66" fill="none" xmlns="http://www.w3.org/2000/svg">
<rect width="66.2" height="66" rx="6" fill="#E0E5EE"/>
<g opacity="0.35">
<path fill-rule="evenodd" clip-rule="evenodd" d="M42.9635 33.4949C43.7942 33.4949 44.2628 32.5408 43.7548 31.8835L37.2913 23.5189C36.891 23.0008 36.1091 23.0008 35.7088 23.5189L31.6964 28.7114C31.3022 29.2215 30.5355 29.2309 30.129 28.7305L28.2762 26.4501C27.876 25.9576 27.1241 25.9576 26.7239 26.4501L22.3249 31.8643C21.7939 32.5178 22.259 33.4949 23.101 33.4949H34C34 33.4949 34 33.4949 34 33.4949C34 33.4949 34 33.4949 34 33.4949H42.9635Z" fill="#29343B"/>
<circle cx="28.5" cy="18.5" r="2.5" fill="#29343B"/>
</g>
<path opacity="0.35" d="M13.6282 42.718V43.735H11.0092V45.346H13.0162V46.345H11.0092V49H9.74922V42.718H13.6282ZM14.9207 43.42C14.6987 43.42 14.5127 43.351 14.3627 43.213C14.2187 43.069 14.1467 42.892 14.1467 42.682C14.1467 42.472 14.2187 42.298 14.3627 42.16C14.5127 42.016 14.6987 41.944 14.9207 41.944C15.1427 41.944 15.3257 42.016 15.4697 42.16C15.6197 42.298 15.6947 42.472 15.6947 42.682C15.6947 42.892 15.6197 43.069 15.4697 43.213C15.3257 43.351 15.1427 43.42 14.9207 43.42ZM15.5417 44.014V49H14.2817V44.014H15.5417ZM17.8066 44.788C17.9686 44.524 18.1786 44.317 18.4366 44.167C18.7006 44.017 19.0006 43.942 19.3366 43.942V45.265H19.0036C18.6076 45.265 18.3076 45.358 18.1036 45.544C17.9056 45.73 17.8066 46.054 17.8066 46.516V49H16.5466V44.014H17.8066V44.788ZM21.8532 49.081C21.4452 49.081 21.0792 49.009 20.7552 48.865C20.4312 48.715 20.1732 48.514 19.9812 48.262C19.7952 48.01 19.6932 47.731 19.6752 47.425H20.9442C20.9682 47.617 21.0612 47.776 21.2232 47.902C21.3912 48.028 21.5982 48.091 21.8442 48.091C22.0842 48.091 22.2702 48.043 22.4022 47.947C22.5402 47.851 22.6092 47.728 22.6092 47.578C22.6092 47.416 22.5252 47.296 22.3572 47.218C22.1952 47.134 21.9342 47.044 21.5742 46.948C21.2022 46.858 20.8962 46.765 20.6562 46.669C20.4222 46.573 20.2182 46.426 20.0442 46.228C19.8762 46.03 19.7922 45.763 19.7922 45.427C19.7922 45.151 19.8702 44.899 20.0262 44.671C20.1882 44.443 20.4162 44.263 20.7102 44.131C21.0102 43.999 21.3612 43.933 21.7632 43.933C22.3572 43.933 22.8312 44.083 23.1852 44.383C23.5392 44.677 23.7342 45.076 23.7702 45.58H22.5642C22.5462 45.382 22.4622 45.226 22.3122 45.112C22.1682 44.992 21.9732 44.932 21.7272 44.932C21.4992 44.932 21.3222 44.974 21.1962 45.058C21.0762 45.142 21.0162 45.259 21.0162 45.409C21.0162 45.577 21.1002 45.706 21.2682 45.796C21.4362 45.88 21.6972 45.967 22.0512 46.057C22.4112 46.147 22.7082 46.24 22.9422 46.336C23.1762 46.432 23.3772 46.582 23.5452 46.786C23.7192 46.984 23.8092 47.248 23.8152 47.578C23.8152 47.866 23.7342 48.124 23.5722 48.352C23.4162 48.58 23.1882 48.76 22.8882 48.892C22.5942 49.018 22.2492 49.081 21.8532 49.081ZM26.0765 45.049V47.461C26.0765 47.629 26.1155 47.752 26.1935 47.83C26.2775 47.902 26.4155 47.938 26.6075 47.938H27.1925V49H26.4005C25.3385 49 24.8075 48.484 24.8075 47.452V45.049H24.2135V44.014H24.8075V42.781H26.0765V44.014H27.1925V45.049H26.0765ZM31.0233 42.718V49H29.7633V42.718H31.0233ZM38.2202 43.942C38.8322 43.942 39.3242 44.131 39.6962 44.509C40.0742 44.881 40.2632 45.403 40.2632 46.075V49H39.0032V46.246C39.0032 45.856 38.9042 45.559 38.7062 45.355C38.5082 45.145 38.2382 45.04 37.8962 45.04C37.5542 45.04 37.2812 45.145 37.0772 45.355C36.8792 45.559 36.7802 45.856 36.7802 46.246V49H35.5202V46.246C35.5202 45.856 35.4212 45.559 35.2232 45.355C35.0252 45.145 34.7552 45.04 34.4132 45.04C34.0652 45.04 33.7892 45.145 33.5852 45.355C33.3872 45.559 33.2882 45.856 33.2882 46.246V49H32.0282V44.014H33.2882V44.617C33.4502 44.407 33.6572 44.242 33.9092 44.122C34.1672 44.002 34.4492 43.942 34.7552 43.942C35.1452 43.942 35.4932 44.026 35.7992 44.194C36.1052 44.356 36.3422 44.59 36.5102 44.896C36.6722 44.608 36.9062 44.377 37.2122 44.203C37.5242 44.029 37.8602 43.942 38.2202 43.942ZM40.8949 46.489C40.8949 45.985 40.9939 45.538 41.1919 45.148C41.3959 44.758 41.6689 44.458 42.0109 44.248C42.3589 44.038 42.7459 43.933 43.1719 43.933C43.5439 43.933 43.8679 44.008 44.1439 44.158C44.4259 44.308 44.6509 44.497 44.8189 44.725V44.014H46.0879V49H44.8189V48.271C44.6569 48.505 44.4319 48.7 44.1439 48.856C43.8619 49.006 43.5349 49.081 43.1629 49.081C42.7429 49.081 42.3589 48.973 42.0109 48.757C41.6689 48.541 41.3959 48.238 41.1919 47.848C40.9939 47.452 40.8949 46.999 40.8949 46.489ZM44.8189 46.507C44.8189 46.201 44.7589 45.94 44.6389 45.724C44.5189 45.502 44.3569 45.334 44.1529 45.22C43.9489 45.1 43.7299 45.04 43.4959 45.04C43.2619 45.04 43.0459 45.097 42.8479 45.211C42.6499 45.325 42.4879 45.493 42.3619 45.715C42.2419 45.931 42.1819 46.189 42.1819 46.489C42.1819 46.789 42.2419 47.053 42.3619 47.281C42.4879 47.503 42.6499 47.674 42.8479 47.794C43.0519 47.914 43.2679 47.974 43.4959 47.974C43.7299 47.974 43.9489 47.917 44.1529 47.803C44.3569 47.683 44.5189 47.515 44.6389 47.299C44.7589 47.077 44.8189 46.813 44.8189 46.507ZM49.0315 43.933C49.4035 43.933 49.7305 44.008 50.0125 44.158C50.2945 44.302 50.5165 44.491 50.6785 44.725V44.014H51.9475V49.036C51.9475 49.498 51.8545 49.909 51.6685 50.269C51.4825 50.635 51.2035 50.923 50.8315 51.133C50.4595 51.349 50.0095 51.457 49.4815 51.457C48.7735 51.457 48.1915 51.292 47.7355 50.962C47.2855 50.632 47.0305 50.182 46.9705 49.612H48.2215C48.2875 49.84 48.4285 50.02 48.6445 50.152C48.8665 50.29 49.1335 50.359 49.4455 50.359C49.8115 50.359 50.1085 50.248 50.3365 50.026C50.5645 49.81 50.6785 49.48 50.6785 49.036V48.262C50.5165 48.496 50.2915 48.691 50.0035 48.847C49.7215 49.003 49.3975 49.081 49.0315 49.081C48.6115 49.081 48.2275 48.973 47.8795 48.757C47.5315 48.541 47.2555 48.238 47.0515 47.848C46.8535 47.452 46.7545 46.999 46.7545 46.489C46.7545 45.985 46.8535 45.538 47.0515 45.148C47.2555 44.758 47.5285 44.458 47.8705 44.248C48.2185 44.038 48.6055 43.933 49.0315 43.933ZM50.6785 46.507C50.6785 46.201 50.6185 45.94 50.4985 45.724C50.3785 45.502 50.2165 45.334 50.0125 45.22C49.8085 45.1 49.5895 45.04 49.3555 45.04C49.1215 45.04 48.9055 45.097 48.7075 45.211C48.5095 45.325 48.3475 45.493 48.2215 45.715C48.1015 45.931 48.0415 46.189 48.0415 46.489C48.0415 46.789 48.1015 47.053 48.2215 47.281C48.3475 47.503 48.5095 47.674 48.7075 47.794C48.9115 47.914 49.1275 47.974 49.3555 47.974C49.5895 47.974 49.8085 47.917 50.0125 47.803C50.2165 47.683 50.3785 47.515 50.4985 47.299C50.6185 47.077 50.6785 46.813 50.6785 46.507ZM57.5731 46.399C57.5731 46.579 57.5611 46.741 57.5371 46.885H53.8921C53.9221 47.245 54.0481 47.527 54.2701 47.731C54.4921 47.935 54.7651 48.037 55.0891 48.037C55.5571 48.037 55.8901 47.836 56.0881 47.434H57.4471C57.3031 47.914 57.0271 48.31 56.6191 48.622C56.2111 48.928 55.7101 49.081 55.1161 49.081C54.6361 49.081 54.2041 48.976 53.8201 48.766C53.4421 48.55 53.1451 48.247 52.9291 47.857C52.7191 47.467 52.6141 47.017 52.6141 46.507C52.6141 45.991 52.7191 45.538 52.9291 45.148C53.1391 44.758 53.4331 44.458 53.8111 44.248C54.1891 44.038 54.6241 43.933 55.1161 43.933C55.5901 43.933 56.0131 44.035 56.3851 44.239C56.7631 44.443 57.0541 44.734 57.2581 45.112C57.4681 45.484 57.5731 45.913 57.5731 46.399ZM56.2681 46.039C56.2621 45.715 56.1451 45.457 55.9171 45.265C55.6891 45.067 55.4101 44.968 55.0801 44.968C54.7681 44.968 54.5041 45.064 54.2881 45.256C54.0781 45.442 53.9491 45.703 53.9011 46.039H56.2681Z" fill="#29343B"/>
</svg>
