<svg width="168" height="82" viewBox="0 0 168 82" fill="none" xmlns="http://www.w3.org/2000/svg">
<rect width="168" height="82" rx="8" fill="#29343B"/>
<rect width="168" height="82" rx="8" fill="#29343B" fill-opacity="0.5"/>
<path d="M46.4118 35.27V45H44.8158V38.336L41.8478 45H40.7418L37.7598 38.336V45H36.1638V35.27H37.8858L41.3018 42.9L44.7038 35.27H46.4118ZM49.0815 36.264C48.7922 36.264 48.5495 36.166 48.3535 35.97C48.1575 35.774 48.0595 35.5313 48.0595 35.242C48.0595 34.9527 48.1575 34.71 48.3535 34.514C48.5495 34.318 48.7922 34.22 49.0815 34.22C49.3615 34.22 49.5995 34.318 49.7955 34.514C49.9915 34.71 50.0895 34.9527 50.0895 35.242C50.0895 35.5313 49.9915 35.774 49.7955 35.97C49.5995 36.166 49.3615 36.264 49.0815 36.264ZM49.8655 37.286V45H48.2695V37.286H49.8655ZM54.5209 45.126C53.9143 45.126 53.3683 45.0187 52.8829 44.804C52.4069 44.58 52.0289 44.2813 51.7489 43.908C51.4689 43.5253 51.3196 43.1007 51.3009 42.634H52.9529C52.9809 42.9607 53.1349 43.236 53.4149 43.46C53.7043 43.6747 54.0636 43.782 54.4929 43.782C54.9409 43.782 55.2863 43.698 55.5289 43.53C55.7809 43.3527 55.9069 43.1287 55.9069 42.858C55.9069 42.5687 55.7669 42.354 55.4869 42.214C55.2163 42.074 54.7823 41.92 54.1849 41.752C53.6063 41.5933 53.1349 41.4393 52.7709 41.29C52.4069 41.1407 52.0896 40.912 51.8189 40.604C51.5576 40.296 51.4269 39.89 51.4269 39.386C51.4269 38.9753 51.5483 38.602 51.7909 38.266C52.0336 37.9207 52.3789 37.65 52.8269 37.454C53.2843 37.258 53.8069 37.16 54.3949 37.16C55.2723 37.16 55.9769 37.384 56.5089 37.832C57.0503 38.2707 57.3396 38.8727 57.3769 39.638H55.7809C55.7529 39.2927 55.6129 39.0173 55.3609 38.812C55.1089 38.6067 54.7683 38.504 54.3389 38.504C53.9189 38.504 53.5969 38.5833 53.3729 38.742C53.1489 38.9007 53.0369 39.1107 53.0369 39.372C53.0369 39.5773 53.1116 39.75 53.2609 39.89C53.4103 40.03 53.5923 40.142 53.8069 40.226C54.0216 40.3007 54.3389 40.3987 54.7589 40.52C55.3189 40.6693 55.7763 40.8233 56.1309 40.982C56.4949 41.1313 56.8076 41.3553 57.0689 41.654C57.3303 41.9527 57.4656 42.3493 57.4749 42.844C57.4749 43.2827 57.3536 43.6747 57.1109 44.02C56.8683 44.3653 56.5229 44.636 56.0749 44.832C55.6363 45.028 55.1183 45.126 54.5209 45.126ZM58.4275 41.136C58.4275 40.3427 58.5861 39.6473 58.9035 39.05C59.2301 38.4433 59.6781 37.9767 60.2475 37.65C60.8168 37.3233 61.4701 37.16 62.2075 37.16C63.1408 37.16 63.9108 37.384 64.5175 37.832C65.1335 38.2707 65.5488 38.9007 65.7635 39.722H64.0415C63.9015 39.3393 63.6775 39.0407 63.3695 38.826C63.0615 38.6113 62.6741 38.504 62.2075 38.504C61.5541 38.504 61.0315 38.7373 60.6395 39.204C60.2568 39.6613 60.0655 40.3053 60.0655 41.136C60.0655 41.9667 60.2568 42.6153 60.6395 43.082C61.0315 43.5487 61.5541 43.782 62.2075 43.782C63.1315 43.782 63.7428 43.376 64.0415 42.564H65.7635C65.5395 43.348 65.1195 43.9733 64.5035 44.44C63.8875 44.8973 63.1221 45.126 62.2075 45.126C61.4701 45.126 60.8168 44.9627 60.2475 44.636C59.6781 44.3 59.2301 43.8333 58.9035 43.236C58.5861 42.6293 58.4275 41.9293 58.4275 41.136ZM74.184 40.954C74.184 41.2433 74.1653 41.5047 74.128 41.738H68.234C68.2807 42.354 68.5093 42.8487 68.92 43.222C69.3307 43.5953 69.8347 43.782 70.432 43.782C71.2907 43.782 71.8973 43.4227 72.252 42.704H73.974C73.7407 43.4133 73.316 43.9967 72.7 44.454C72.0933 44.902 71.3373 45.126 70.432 45.126C69.6947 45.126 69.032 44.9627 68.444 44.636C67.8653 44.3 67.408 43.8333 67.072 43.236C66.7453 42.6293 66.582 41.9293 66.582 41.136C66.582 40.3427 66.7407 39.6473 67.058 39.05C67.3847 38.4433 67.8373 37.9767 68.416 37.65C69.004 37.3233 69.676 37.16 70.432 37.16C71.16 37.16 71.8087 37.3187 72.378 37.636C72.9473 37.9533 73.3907 38.4013 73.708 38.98C74.0253 39.5493 74.184 40.2073 74.184 40.954ZM72.518 40.45C72.5087 39.862 72.2987 39.3907 71.888 39.036C71.4773 38.6813 70.9687 38.504 70.362 38.504C69.8113 38.504 69.34 38.6813 68.948 39.036C68.556 39.3813 68.3227 39.8527 68.248 40.45H72.518ZM77.1106 34.64V45H75.5146V34.64H77.1106ZM80.562 34.64V45H78.966V34.64H80.562ZM81.8854 41.108C81.8854 40.3333 82.0441 39.6473 82.3614 39.05C82.6881 38.4527 83.1268 37.9907 83.6774 37.664C84.2374 37.328 84.8534 37.16 85.5254 37.16C86.1321 37.16 86.6594 37.2813 87.1074 37.524C87.5648 37.7573 87.9288 38.0513 88.1994 38.406V37.286H89.8094V45H88.1994V43.852C87.9288 44.216 87.5601 44.5193 87.0934 44.762C86.6268 45.0047 86.0948 45.126 85.4974 45.126C84.8348 45.126 84.2281 44.958 83.6774 44.622C83.1268 44.2767 82.6881 43.8007 82.3614 43.194C82.0441 42.578 81.8854 41.8827 81.8854 41.108ZM88.1994 41.136C88.1994 40.604 88.0874 40.142 87.8634 39.75C87.6488 39.358 87.3641 39.0593 87.0094 38.854C86.6548 38.6487 86.2721 38.546 85.8614 38.546C85.4508 38.546 85.0681 38.6487 84.7134 38.854C84.3588 39.05 84.0694 39.344 83.8454 39.736C83.6308 40.1187 83.5234 40.576 83.5234 41.108C83.5234 41.64 83.6308 42.1067 83.8454 42.508C84.0694 42.9093 84.3588 43.2173 84.7134 43.432C85.0774 43.6373 85.4601 43.74 85.8614 43.74C86.2721 43.74 86.6548 43.6373 87.0094 43.432C87.3641 43.2267 87.6488 42.928 87.8634 42.536C88.0874 42.1347 88.1994 41.668 88.1994 41.136ZM95.5577 37.16C96.1644 37.16 96.7057 37.286 97.1817 37.538C97.667 37.79 98.045 38.1633 98.3157 38.658C98.5864 39.1527 98.7217 39.75 98.7217 40.45V45H97.1397V40.688C97.1397 39.9973 96.967 39.47 96.6217 39.106C96.2764 38.7327 95.805 38.546 95.2077 38.546C94.6104 38.546 94.1344 38.7327 93.7797 39.106C93.4344 39.47 93.2617 39.9973 93.2617 40.688V45H91.6657V37.286H93.2617V38.168C93.523 37.8507 93.8544 37.6033 94.2557 37.426C94.6664 37.2487 95.1004 37.16 95.5577 37.16ZM107.587 40.954C107.587 41.2433 107.569 41.5047 107.531 41.738H101.637C101.684 42.354 101.913 42.8487 102.323 43.222C102.734 43.5953 103.238 43.782 103.835 43.782C104.694 43.782 105.301 43.4227 105.655 42.704H107.377C107.144 43.4133 106.719 43.9967 106.103 44.454C105.497 44.902 104.741 45.126 103.835 45.126C103.098 45.126 102.435 44.9627 101.847 44.636C101.269 44.3 100.811 43.8333 100.475 43.236C100.149 42.6293 99.9855 41.9293 99.9855 41.136C99.9855 40.3427 100.144 39.6473 100.461 39.05C100.788 38.4433 101.241 37.9767 101.819 37.65C102.407 37.3233 103.079 37.16 103.835 37.16C104.563 37.16 105.212 37.3187 105.781 37.636C106.351 37.9533 106.794 38.4013 107.111 38.98C107.429 39.5493 107.587 40.2073 107.587 40.954ZM105.921 40.45C105.912 39.862 105.702 39.3907 105.291 39.036C104.881 38.6813 104.372 38.504 103.765 38.504C103.215 38.504 102.743 38.6813 102.351 39.036C101.959 39.3813 101.726 39.8527 101.651 40.45H105.921ZM112.264 45.126C111.536 45.126 110.878 44.9627 110.29 44.636C109.702 44.3 109.24 43.8333 108.904 43.236C108.568 42.6293 108.4 41.9293 108.4 41.136C108.4 40.352 108.573 39.6567 108.918 39.05C109.263 38.4433 109.735 37.9767 110.332 37.65C110.929 37.3233 111.597 37.16 112.334 37.16C113.071 37.16 113.739 37.3233 114.336 37.65C114.933 37.9767 115.405 38.4433 115.75 39.05C116.095 39.6567 116.268 40.352 116.268 41.136C116.268 41.92 116.091 42.6153 115.736 43.222C115.381 43.8287 114.896 44.3 114.28 44.636C113.673 44.9627 113.001 45.126 112.264 45.126ZM112.264 43.74C112.675 43.74 113.057 43.642 113.412 43.446C113.776 43.25 114.07 42.956 114.294 42.564C114.518 42.172 114.63 41.696 114.63 41.136C114.63 40.576 114.523 40.1047 114.308 39.722C114.093 39.33 113.809 39.036 113.454 38.84C113.099 38.644 112.717 38.546 112.306 38.546C111.895 38.546 111.513 38.644 111.158 38.84C110.813 39.036 110.537 39.33 110.332 39.722C110.127 40.1047 110.024 40.576 110.024 41.136C110.024 41.9667 110.234 42.6107 110.654 43.068C111.083 43.516 111.62 43.74 112.264 43.74ZM124.592 37.286V45H122.996V44.09C122.744 44.4073 122.413 44.6593 122.002 44.846C121.601 45.0233 121.171 45.112 120.714 45.112C120.107 45.112 119.561 44.986 119.076 44.734C118.6 44.482 118.222 44.1087 117.942 43.614C117.671 43.1193 117.536 42.522 117.536 41.822V37.286H119.118V41.584C119.118 42.2747 119.291 42.8067 119.636 43.18C119.981 43.544 120.453 43.726 121.05 43.726C121.647 43.726 122.119 43.544 122.464 43.18C122.819 42.8067 122.996 42.2747 122.996 41.584V37.286H124.592ZM129.258 45.126C128.651 45.126 128.105 45.0187 127.62 44.804C127.144 44.58 126.766 44.2813 126.486 43.908C126.206 43.5253 126.056 43.1007 126.038 42.634H127.69C127.718 42.9607 127.872 43.236 128.152 43.46C128.441 43.6747 128.8 43.782 129.23 43.782C129.678 43.782 130.023 43.698 130.266 43.53C130.518 43.3527 130.644 43.1287 130.644 42.858C130.644 42.5687 130.504 42.354 130.224 42.214C129.953 42.074 129.519 41.92 128.922 41.752C128.343 41.5933 127.872 41.4393 127.508 41.29C127.144 41.1407 126.826 40.912 126.556 40.604C126.294 40.296 126.164 39.89 126.164 39.386C126.164 38.9753 126.285 38.602 126.528 38.266C126.77 37.9207 127.116 37.65 127.564 37.454C128.021 37.258 128.544 37.16 129.132 37.16C130.009 37.16 130.714 37.384 131.246 37.832C131.787 38.2707 132.076 38.8727 132.114 39.638H130.518C130.49 39.2927 130.35 39.0173 130.098 38.812C129.846 38.6067 129.505 38.504 129.076 38.504C128.656 38.504 128.334 38.5833 128.11 38.742C127.886 38.9007 127.774 39.1107 127.774 39.372C127.774 39.5773 127.848 39.75 127.998 39.89C128.147 40.03 128.329 40.142 128.544 40.226C128.758 40.3007 129.076 40.3987 129.496 40.52C130.056 40.6693 130.513 40.8233 130.868 40.982C131.232 41.1313 131.544 41.3553 131.806 41.654C132.067 41.9527 132.202 42.3493 132.212 42.844C132.212 43.2827 132.09 43.6747 131.848 44.02C131.605 44.3653 131.26 44.636 130.812 44.832C130.373 45.028 129.855 45.126 129.258 45.126Z" fill="white"/>
</svg>
