<svg
   width="24" height="24" fill="none" xmlns="http://www.w3.org/2000/svg">
    <path
       id="path845"
       d="M 5.6864195,19.968169 C 4.7341318,19.700365 3.9402508,18.839122 3.7365365,17.852835 L 3.6236654,17.306366 2.5209283,17.275559 C 1.4594926,17.245906 1.408493,17.235053 1.1592503,16.985812 0.90953354,16.736094 0.89919814,16.686977 0.86911034,15.606966 L 0.83791093,14.487061 H 7.8568176 14.875723 V 10.280414 6.073768 l 2.313656,5.219e-4 c 1.342583,3.037e-4 2.463565,0.042149 2.670826,0.099702 0.196444,0.05455 0.512748,0.2397359 0.702899,0.4115255 0.369866,0.3341507 2.400807,3.5097966 2.598867,4.0636716 0.188179,0.526242 0.173698,5.040957 -0.01764,5.498888 -0.32673,0.781977 -0.94151,1.138191 -1.969847,1.141363 l -0.665575,0.002 -0.109417,0.556154 c -0.424031,2.155302 -3.123088,2.966295 -4.68244,1.406943 -0.432654,-0.432655 -0.706023,-0.967507 -0.802331,-1.569779 l -0.06289,-0.393323 H 12.071512 9.2911914 l -0.1078525,0.54823 C 8.871797,19.423203 7.2527935,20.408649 5.6864214,19.968151 Z m 1.5618712,-1.923695 c 0.2455319,-0.245532 0.2891722,-0.359167 0.2891722,-0.752981 0,-0.399191 -0.042579,-0.506388 -0.3056109,-0.769421 -0.2630327,-0.263032 -0.37023,-0.305611 -0.7694209,-0.305611 -0.3991908,0 -0.5063881,0.04258 -0.7694208,0.305611 -0.2620048,0.262004 -0.3056112,0.370972 -0.3056112,0.763687 0,0.480535 0.2382675,0.860349 0.6543673,1.043108 0.3495221,0.153514 0.8978699,0.02426 1.2065243,-0.284393 z m 11.2177233,0 c 0.245532,-0.245532 0.289173,-0.359167 0.289173,-0.752981 0,-0.399191 -0.04258,-0.506388 -0.305612,-0.769421 -0.263032,-0.263032 -0.37023,-0.305611 -0.76942,-0.305611 -0.399192,0 -0.506387,0.04258 -0.769421,0.305611 -0.262005,0.262004 -0.305611,0.370972 -0.305611,0.763687 0,0.480535 0.238266,0.860349 0.654367,1.043108 0.349521,0.153514 0.89787,0.02426 1.206524,-0.284393 z m 2.51295,-7.600467 C 20.880811,10.276909 20.555746,9.7072942 20.256597,9.1781957 19.891209,8.5319386 19.626115,8.1714286 19.448914,8.0797936 19.257259,7.9806852 18.851586,7.9433887 17.96524,7.9433887 H 16.745344 V 9.3456042 10.74782 h 2.206038 2.206038 z M 0.87450423,8.6933052 0.90030956,3.8343599 1.1595069,3.5752187 1.4187043,3.3160775 h 5.9785371 5.9785366 l 0.259197,0.2591412 0.259197,0.2591412 0.02581,4.8589453 0.02581,4.8589458 H 7.3972414 0.84869909 Z"
       style="fill:#8da2cb;fill-opacity:1;stroke-width:0.0934813" />
</svg>
