<svg width="32" height="32" viewBox="0 0 32 32" fill="none" xmlns="http://www.w3.org/2000/svg">
<path d="M15 4L9.00645 4.02543C8.22911 4.02543 7.50112 4.46878 7.1325 5.1664L4 11L14.3969 10.9746L15 4Z" fill="#FDD98B"/>
<path d="M28 10.9746L24.8446 5.14098C24.4638 4.44336 23.7514 4 22.9668 4L17 4.02543L17.6265 11L28 10.9746Z" fill="#FDD98B"/>
<path d="M27.9895 12L16.8948 12.0369H15.0962L4 12.0614V25.953C4 27.0863 4.89856 28.0031 6.00413 28L15.2627 27.98L25.9959 28C27.1029 28.0015 28 27.0832 28 25.9514L27.9895 12ZM25.0013 24.1655C25.0013 24.5893 24.6653 24.9333 24.2513 24.9333H17.7514C17.3373 24.9333 17.0013 24.5893 17.0013 24.1655V20.5828C17.0013 20.1589 17.3373 19.815 17.7514 19.815H24.2513C24.6653 19.815 25.0013 20.1589 25.0013 20.5828V24.1655Z" fill="#F2B530"/>
</svg>
