<svg width="16" height="16" viewBox="0 0 16 16" fill="none" xmlns="http://www.w3.org/2000/svg">
<path fill-rule="evenodd" clip-rule="evenodd" d="M6.90549 5.75C6.57245 7.04392 5.39788 8 4 8C2.34315 8 1 6.65685 1 5C1 3.34315 2.34315 2 4 2C5.39788 2 6.57245 2.95608 6.90549 4.25H13C13.4142 4.25 13.75 4.58579 13.75 5C13.75 5.41421 13.4142 5.75 13 5.75H6.90549ZM2.25 11C2.25 10.5858 2.58579 10.25 3 10.25H9.09451C9.42754 8.95608 10.6021 8 12 8C13.6569 8 15 9.34315 15 11C15 12.6569 13.6569 14 12 14C10.6021 14 9.42754 13.0439 9.09451 11.75H3C2.58579 11.75 2.25 11.4142 2.25 11Z" fill="white"/>
</svg>
